<svg width="28" height="20" viewBox="0 0 28 20" fill="none" xmlns="http://www.w3.org/2000/svg">
<path d="M25.2922 5.625C25.7023 5.84201 26.076 6.10677 26.4133 6.41927C26.7505 6.73177 27.033 7.07899 27.2609 7.46094C27.4887 7.84288 27.671 8.24653 27.8077 8.67188C27.9445 9.09722 28.0083 9.53993 27.9991 10H26.2492C26.2492 9.54861 26.1581 9.11892 25.9758 8.71094C25.7935 8.30295 25.5428 7.95139 25.2238 7.65625C24.9048 7.36111 24.5312 7.1224 24.1028 6.9401C23.6744 6.75781 23.2232 6.66667 22.7493 6.66667C22.2662 6.66667 21.8151 6.75347 21.3958 6.92708C20.9766 7.10069 20.6074 7.33941 20.2884 7.64323C19.9694 7.94705 19.7188 8.30295 19.5365 8.71094C19.3542 9.11892 19.2585 9.54861 19.2494 10C19.2494 10.7899 19.0626 11.5408 18.6889 12.2526C18.3152 12.9644 17.7911 13.5547 17.1167 14.0234C17.7091 14.3099 18.2423 14.6615 18.7162 15.0781C19.1902 15.4948 19.6003 15.9635 19.9467 16.4844C20.293 17.0052 20.5528 17.5608 20.7259 18.151C20.8991 18.7413 20.9902 19.3576 20.9994 20H19.2494C19.2494 19.3142 19.1127 18.6675 18.8393 18.0599C18.5658 17.4523 18.1876 16.9227 17.7045 16.4714C17.2215 16.02 16.6655 15.6641 16.0366 15.4036C15.4077 15.1432 14.7287 15.0087 13.9996 15C13.2795 15 12.6005 15.1302 11.9625 15.3906C11.3245 15.651 10.7686 16.0113 10.2946 16.4714C9.82066 16.9314 9.44698 17.4609 9.17355 18.0599C8.90012 18.6589 8.75885 19.3056 8.74973 20H6.99979C6.99979 19.3663 7.09093 18.7543 7.27322 18.1641C7.4555 17.5738 7.71526 17.0182 8.05249 16.4974C8.38972 15.9766 8.7953 15.5078 9.26925 15.0911C9.74319 14.6745 10.2809 14.3186 10.8825 14.0234C10.2171 13.5547 9.69762 12.9644 9.32393 12.2526C8.95025 11.5408 8.75885 10.7899 8.74973 10C8.74973 9.54861 8.65859 9.11892 8.4763 8.71094C8.29402 8.30295 8.04337 7.95139 7.72437 7.65625C7.40537 7.36111 7.03169 7.1224 6.60331 6.9401C6.17494 6.75781 5.72378 6.66667 5.24984 6.66667C4.76678 6.66667 4.31562 6.75347 3.89637 6.92708C3.47711 7.10069 3.10798 7.33941 2.78898 7.64323C2.46998 7.94705 2.21933 8.30295 2.03705 8.71094C1.85476 9.11892 1.75906 9.54861 1.74995 10H0C0 9.54861 0.0638001 9.11024 0.1914 8.6849C0.319001 8.25955 0.49673 7.8559 0.724587 7.47396C0.952445 7.09201 1.23955 6.74479 1.58589 6.43229C1.93223 6.11979 2.30592 5.85069 2.70695 5.625C2.40618 5.32118 2.17376 4.96962 2.0097 4.57031C1.84565 4.17101 1.75906 3.75868 1.74995 3.33333C1.74995 2.88194 1.84109 2.45226 2.02338 2.04427C2.20566 1.63628 2.45631 1.28472 2.77531 0.989583C3.09431 0.694444 3.46344 0.455729 3.88269 0.273438C4.30195 0.0911458 4.75767 0 5.24984 0C5.72378 0 6.17494 0.0868056 6.60331 0.260417C7.03169 0.434028 7.40082 0.672743 7.7107 0.976562C8.02059 1.28038 8.27123 1.63628 8.46263 2.04427C8.65403 2.45226 8.74973 2.88194 8.74973 3.33333C8.74973 3.75868 8.6677 4.17101 8.50365 4.57031C8.33959 4.96962 8.10262 5.32118 7.79273 5.625C8.5401 6.01562 9.15076 6.55382 9.62471 7.23958C10.1169 6.54514 10.7458 5.99826 11.5114 5.59896C12.277 5.19965 13.1064 5 13.9996 5C14.8837 5 15.7085 5.19965 16.4741 5.59896C17.2397 5.99826 17.8732 6.54514 18.3744 7.23958C18.8484 6.55382 19.459 6.01562 20.2064 5.625C19.9056 5.32118 19.6732 4.96962 19.5092 4.57031C19.3451 4.17101 19.2585 3.75868 19.2494 3.33333C19.2494 2.88194 19.3406 2.45226 19.5228 2.04427C19.7051 1.63628 19.9558 1.28472 20.2748 0.989583C20.5938 0.694444 20.9629 0.455729 21.3822 0.273438C21.8014 0.0911458 22.2571 0 22.7493 0C23.2232 0 23.6744 0.0868056 24.1028 0.260417C24.5312 0.434028 24.9003 0.672743 25.2102 0.976562C25.5201 1.28038 25.7707 1.63628 25.9621 2.04427C26.1535 2.45226 26.2492 2.88194 26.2492 3.33333C26.2492 3.75868 26.1672 4.17101 26.0031 4.57031C25.8391 4.96962 25.6021 5.32118 25.2922 5.625ZM3.49989 3.33333C3.49989 3.56771 3.54546 3.78472 3.63661 3.98438C3.72775 4.18403 3.85079 4.35764 4.00574 4.50521C4.16068 4.65278 4.34752 4.77431 4.56627 4.86979C4.78501 4.96528 5.01287 5.00868 5.24984 5C5.49593 5 5.72378 4.9566 5.93341 4.86979C6.14304 4.78299 6.32533 4.6658 6.48027 4.51823C6.63521 4.37066 6.76281 4.19271 6.86307 3.98438C6.96333 3.77604 7.0089 3.55903 6.99979 3.33333C6.99979 3.09896 6.95422 2.88194 6.86307 2.68229C6.77193 2.48264 6.64889 2.30903 6.49394 2.16146C6.339 2.01389 6.15216 1.89236 5.93341 1.79688C5.71467 1.70139 5.48681 1.65799 5.24984 1.66667C5.00375 1.66667 4.7759 1.71007 4.56627 1.79688C4.35664 1.88368 4.17435 2.00087 4.01941 2.14844C3.86447 2.29601 3.73687 2.47396 3.63661 2.68229C3.53635 2.89062 3.49078 3.10764 3.49989 3.33333ZM13.9996 13.3333C14.4735 13.3333 14.9247 13.2465 15.353 13.0729C15.7814 12.8993 16.1505 12.6606 16.4604 12.3568C16.7703 12.053 17.021 11.7014 17.2124 11.3021C17.4038 10.9028 17.4995 10.4688 17.4995 10C17.4995 9.54861 17.4083 9.11892 17.226 8.71094C17.0438 8.30295 16.7931 7.95139 16.4741 7.65625C16.1551 7.36111 15.7814 7.1224 15.353 6.9401C14.9247 6.75781 14.4735 6.66667 13.9996 6.66667C13.5165 6.66667 13.0654 6.75347 12.6461 6.92708C12.2268 7.10069 11.8577 7.33941 11.5387 7.64323C11.2197 7.94705 10.9691 8.30295 10.7868 8.71094C10.6045 9.11892 10.5088 9.54861 10.4997 10C10.4997 10.4601 10.5908 10.8898 10.7731 11.2891C10.9554 11.6884 11.206 12.0399 11.525 12.3438C11.844 12.6476 12.2132 12.8863 12.6324 13.0599C13.0517 13.2335 13.5074 13.3247 13.9996 13.3333ZM20.9994 3.33333C20.9994 3.56771 21.0449 3.78472 21.1361 3.98438C21.2272 4.18403 21.3503 4.35764 21.5052 4.50521C21.6601 4.65278 21.847 4.77431 22.0657 4.86979C22.2845 4.96528 22.5123 5.00868 22.7493 5C22.9954 5 23.2232 4.9566 23.4329 4.86979C23.6425 4.78299 23.8248 4.6658 23.9797 4.51823C24.1347 4.37066 24.2623 4.19271 24.3625 3.98438C24.4628 3.77604 24.5084 3.55903 24.4993 3.33333C24.4993 3.09896 24.4537 2.88194 24.3625 2.68229C24.2714 2.48264 24.1484 2.30903 23.9934 2.16146C23.8385 2.01389 23.6516 1.89236 23.4329 1.79688C23.2141 1.70139 22.9863 1.65799 22.7493 1.66667C22.5032 1.66667 22.2754 1.71007 22.0657 1.79688C21.8561 1.88368 21.6738 2.00087 21.5189 2.14844C21.3639 2.29601 21.2363 2.47396 21.1361 2.68229C21.0358 2.89062 20.9902 3.10764 20.9994 3.33333Z" fill="#3A3A3A"/>
</svg>
